<?xml version="1.0" standalone="no"?>
<!DOCTYPE svg PUBLIC "-//W3C//DTD SVG 20010904//EN"
 "http://www.w3.org/TR/2001/REC-SVG-20010904/DTD/svg10.dtd">
<svg version="1.0" xmlns="http://www.w3.org/2000/svg"
 width="500.000000pt" height="500.000000pt" viewBox="0 0 500.000000 500.000000"
 preserveAspectRatio="xMidYMid meet">

<g transform="translate(0.000000,500.000000) scale(0.100000,-0.100000)"
fill="#000000" stroke="none">
<path d="M1590 4064 c-614 -349 -885 -507 -884 -518 1 -9 -5 -16 -14 -16 -13
0 -14 -23 -9 -192 4 -106 12 -559 19 -1006 l12 -813 25 -14 c14 -7 406 -248
871 -536 695 -430 852 -523 884 -525 36 -2 110 42 898 531 l859 534 5 163 c2
90 11 471 19 848 8 377 17 765 21 863 5 151 4 177 -9 177 -8 0 -20 6 -27 14
-6 8 -17 13 -24 10 -7 -3 -393 214 -857 482 -464 268 -852 489 -861 492 -11 2
-18 -1 -18 -9 0 -9 -3 -8 -12 3 -11 13 -125 -48 -898 -488z m1518 -319 l469
-560 -538 -3 c-295 -1 -783 -1 -1083 0 l-546 3 542 647 541 646 73 -86 c40
-48 284 -339 542 -647z m-699 698 c-47 -60 -1031 -1233 -1038 -1237 -7 -5
-563 302 -582 321 -6 6 1612 932 1630 933 2 0 -3 -8 -10 -17z m1014 -473 c406
-234 737 -427 737 -430 0 -5 -491 -296 -535 -318 -18 -8 -74 55 -535 606 -283
338 -517 619 -519 625 -4 12 -49 37 852 -483z m792 -1325 c-9 -451 -20 -853
-23 -893 l-7 -73 -267 725 c-146 399 -264 734 -261 744 3 12 111 82 286 186
233 138 283 164 286 149 2 -10 -4 -387 -14 -838z m-3178 668 c153 -86 280
-161 281 -165 2 -4 10 -8 19 -8 8 0 13 -6 11 -14 -8 -36 -564 -1514 -567
-1510 -11 10 -37 1854 -26 1854 2 0 129 -71 282 -157z m2521 -195 c-8 -13
-250 -434 -538 -936 -450 -785 -525 -910 -535 -895 -21 31 -1045 1841 -1045
1847 0 3 480 6 1066 6 l1066 0 -14 -22z m-1618 -950 c287 -506 519 -922 517
-925 -5 -4 -1564 278 -1628 295 l-26 7 277 743 c153 408 285 763 295 789 16
42 19 45 31 28 7 -9 247 -431 534 -937z m1964 158 c280 -760 291 -794 256
-796 -3 0 -369 -65 -815 -144 -445 -79 -811 -143 -813 -141 -2 2 238 425 534
940 295 515 540 933 544 928 4 -4 137 -359 294 -787z m-2204 -991 c410 -75
748 -140 753 -144 4 -4 6 -157 5 -339 l-3 -332 -770 476 c-423 262 -772 478
-775 481 -3 3 6 3 20 0 14 -3 360 -67 770 -142z m2355 126 c-15 -13 -1512
-941 -1519 -941 -10 0 -7 654 3 669 6 10 241 56 743 147 403 72 744 132 758
133 14 1 20 -3 15 -8z"/>
</g>
</svg>
